# Object Export From Tinkercad Server 2015

mtllib obj.mtl

o obj_0
v 11 		-7 		28
v 11 		-7.001 		28
v 11 		-7.001 		27.583
v 11 		-7 		27.583
v 10.5 		2.003 		0.575
v 10.5 		12 		0.575
v -21.502 		-7 		28
v 10.5 		12 		22.584
v -21.502 		-7 		27.583
v -22 		-7 		27.583
v -22 		-7 		28
v 10.502 		-7 		28
v 10.502 		-7 		27.583
v 10.5 		2.003 		22.584
v -22 		-7.001 		28
v -21.502 		-7.001 		28
v -21.502 		-7.001 		27.583
v -22 		-7.001 		27.583
v -21.5 		2.003 		0.575
v 10.502 		-7.001 		28
v 10.502 		-7.001 		27.583
v -21.5 		2.003 		22.584
v -21.5 		12 		0.575
v -21.5 		12 		22.584
# 24 vertices

g group_0_1206582

usemtl color_1206582
s 0

f 1 	2 	3
f 1 	3 	4
f 7 	9 	10
f 7 	10 	11
f 4 	13 	12
f 4 	12 	1
f 11 	15 	16
f 11 	16 	7
f 17 	16 	15
f 17 	15 	18
f 3 	2 	20
f 3 	20 	21
f 12 	13 	21
f 12 	21 	20
f 10 	18 	15
f 10 	15 	11
f 12 	20 	2
f 12 	2 	1
f 9 	17 	18
f 9 	18 	10
f 4 	3 	21
f 4 	21 	13
f 9 	7 	16
f 9 	16 	17
# 24 faces

g group_0_2829873

usemtl color_2829873
s 0

f 5 	6 	8
f 5 	8 	14
f 19 	5 	14
f 19 	14 	22
f 6 	5 	19
f 6 	19 	23
f 24 	22 	14
f 24 	14 	8
f 22 	24 	23
f 22 	23 	19
f 24 	8 	6
f 24 	6 	23
# 12 faces

 #end of obj_0

