# Object Export From Tinkercad Server 2015

mtllib obj.mtl

o obj_0
v 11.914 		-7.305 		0
v 11.659 		-8.588 		0
v 11.239 		-9.827 		0
v 10.66 		-11 		0
v 9.934 		-12.088 		0
v 9.071 		-13.071 		0
v 8.088 		-13.934 		0
v 7 		-14.66 		0
v 5.827 		-15.239 		0
v 4.588 		-15.659 		0
v 3.305 		-15.914 		0
v 2 		-16 		0
v 0.695 		-15.914 		0
v 14.5733 		-6.5 		18.9912
v 12.5504 		-8.5997 		19.995
v 12.5505 		-9.7001 		19.995
v 15.676 		-6.5 		18.444
v 11.659 		-3.412 		0
v 11.239 		-2.173 		0
v -5.926 		-3.728 		19.995
v -5.071 		-13.071 		0
v 9.933 		-4.755 		2.998
v -6.133 		-4.755 		19.995
v 10.66 		-1 		0
v 3.305 		-15.914 		19.995
v 10.003 		-5.799 		2.998
v 2 		-16 		19.995
v -5.586 		-2.737 		19.995
v 9.726 		-3.728 		2.998
v -4.088 		-13.934 		0
v 4.588 		-15.659 		19.995
v -0.588 		-15.659 		0
v -1.827 		-15.239 		0
v -3 		-14.66 		0
v 10.66 		-11 		19.995
v 10.66 		-11 		19.7357
v -5.934 		-12.088 		0
v 10.7094 		-10.8999 		19.995
v -5.117 		-1.798 		19.995
v 0.695 		-15.914 		19.995
v -0.197 		-13.529 		2.998
v -6.66 		-11 		0
v -7.239 		-9.827 		0
v -7.659 		-8.588 		0
v -1.201 		-13.193 		2.998
v -4.528 		-0.928 		19.995
v 0.842 		-13.734 		19.995
v 1.9 		-13.802 		19.995
v -2.151 		-12.73 		2.998
v -3.829 		-0.141 		19.995
v -6.133 		-6.844 		19.995
v -6.202 		-5.799 		19.995
v 0.695 		3.914 		0
v 5.827 		-15.239 		19.995
v 2 		4 		0
v 3.305 		3.914 		0
v 8.328 		-10.671 		19.995
v 8.5656 		-10.32 		19.995
v 8.328 		-10.671 		18.9877
v 7 		-14.66 		19.995
v 8.328 		-10.671 		17.7375
v -5.934 		0.088 		0
v -5.071 		1.071 		0
v -4.088 		1.934 		0
v -3 		2.66 		0
v -1.827 		3.239 		0
v -0.588 		3.659 		0
v 8.088 		-13.934 		19.995
v 11.6431 		-8.6348 		16.6892
v 9.071 		-13.071 		19.995
v 8.088 		1.934 		0
v 7 		2.66 		0
v -7.033 		-5.461 		19.995
v -6.902 		-7.456 		19.995
v -7.914 		-4.695 		0
v -7.659 		-3.412 		0
v -7.239 		-2.173 		0
v -6.66 		-1 		0
v 8.0331 		-11.003 		17.9327
v 7.629 		-11.458 		19.995
v 5.827 		3.239 		0
v 9.934 		-12.088 		19.995
v 9.934 		0.088 		19.995
v 4.588 		3.659 		0
v -7.9685 		-5.5226 		19.995
v 9.071 		1.071 		19.995
v -6.202 		-5.799 		2.998
v -6.66 		-1 		19.995
v 5.001 		1.594 		2.998
v -7.239 		-2.173 		19.995
v -7.659 		-3.412 		19.995
v -7.914 		-4.695 		19.995
v 8.088 		1.934 		19.995
v 5.951 		1.131 		2.998
v 6.833 		0.549 		2.998
v 7 		2.66 		19.995
v 12.5504 		-4.4007 		19.995
v 11.239 		-9.827 		18.3557
v 5.827 		3.239 		19.995
v 6.833 		-12.148 		19.995
v 11.659 		-8.588 		16.6238
v 4.588 		3.659 		19.995
v 3.305 		3.914 		19.995
v 2 		4 		19.995
v 0.695 		3.914 		19.995
v 0.842 		2.135 		19.995
v 5.951 		-12.73 		19.995
v 1.9 		2.203 		19.995
v 9.4473 		-11.003 		19.995
v 2.958 		2.135 		19.995
v -4.088 		-13.934 		19.995
v 3.997 		1.93 		19.995
v 5.001 		-13.193 		19.995
v 11.914 		-7.305 		14.5721
v 11.967 		-6.5 		13.1317
v 5.001 		1.594 		19.995
v 3.997 		-13.529 		19.995
v 5.951 		1.131 		19.995
v -6.133 		-6.844 		2.998
v 2.958 		-13.734 		19.995
v 0.842 		2.135 		2.998
v 6.833 		0.549 		19.995
v -0.588 		3.659 		19.995
v -3 		-14.66 		19.995
v 11.914 		-4.695 		16.4547
v -1.827 		3.239 		19.995
v -1.827 		-15.239 		19.995
v -3 		2.66 		19.995
v 12 		-6 		14.1204
v -0.588 		-15.659 		19.995
v -4.088 		1.934 		19.995
v -0.197 		-13.529 		19.995
v -5.071 		1.071 		19.995
v -5.934 		0.088 		19.995
v -1.201 		-13.193 		19.995
v 9.956 		-6.5 		12.2577
v -3.032 		0.549 		19.995
v 9.933 		-6.844 		12.8718
v -2.151 		-12.73 		19.995
v -2.151 		1.131 		19.995
v -1.201 		1.594 		19.995
v 9.933 		-4.755 		15.5107
v -0.197 		1.93 		19.995
v 10.003 		-5.799 		13.6465
v -8 		-6 		11.549
v -7.9685 		-5.5226 		11.549
v -7.914 		-7.305 		11.549
v 10.66 		-1 		19.995
v -7.8713 		-7.5199 		11.549
v -7.914 		-7.305 		0
v -8 		-6 		0
v 7.629 		-0.141 		19.995
v -14.885 		-7.982 		11.549
v -15.016 		-5.987 		11.549
v 8.328 		-0.928 		19.995
v 10.8411 		-11 		19.995
v -15.016 		-5.987 		19.995
v -14.885 		-7.982 		19.995
v -7.8713 		-7.5199 		19.995
v 8.917 		-1.798 		19.995
v 9.386 		-8.862 		15.8741
v 9.0169 		-1.998 		19.3673
v -5.926 		-7.871 		19.995
v 9.137 		-2.2384 		19.995
v 1.9 		2.203 		2.998
v 9.726 		-7.871 		14.5038
v -7.659 		-8.588 		19.995
v 2.958 		2.135 		2.998
v -7.239 		-9.827 		19.995
v 9.4473 		-1.998 		19.995
v 3.997 		1.93 		2.998
v -6.66 		-11 		19.995
v -5.934 		-12.088 		19.995
v 8.917 		-9.801 		16.9583
v -5.071 		-13.071 		19.995
v -3.032 		-12.148 		19.995
v 9.933 		-6.844 		2.998
v 9.726 		-7.871 		2.998
v -3.829 		-11.458 		19.995
v -4.528 		-10.671 		19.995
v -5.117 		-9.801 		19.995
v -5.586 		-8.862 		19.995
v -5.926 		-7.871 		2.998
v -3.032 		0.549 		2.998
v -2.151 		1.131 		2.998
v -1.201 		1.594 		2.998
v -0.197 		1.93 		2.998
v 7.629 		-0.141 		2.998
v 8.328 		-0.928 		2.998
v 8.917 		-1.798 		2.998
v 9.386 		-2.737 		2.998
v 1.9 		-13.802 		2.998
v 0.842 		-13.734 		2.998
v -3.032 		-12.148 		2.998
v 9.386 		-8.862 		2.998
v -3.829 		-11.458 		2.998
v 8.917 		-9.801 		2.998
v -4.528 		-10.671 		2.998
v 8.328 		-10.671 		2.998
v 7.629 		-11.458 		2.998
v -5.117 		-9.801 		2.998
v 6.833 		-12.148 		2.998
v -5.586 		-8.862 		2.998
v 5.951 		-12.73 		2.998
v 5.001 		-13.193 		2.998
v 3.997 		-13.529 		2.998
v 2.958 		-13.734 		2.998
v 11.659 		-3.412 		18.5056
v 11.239 		-2.173 		19.995
v 11.3046 		-2.3665 		19.9667
v -6.133 		-4.755 		2.998
v -5.926 		-3.728 		2.998
v -5.586 		-2.737 		2.998
v -5.117 		-1.798 		2.998
v -4.528 		-0.928 		2.998
v -3.829 		-0.141 		2.998
v 12.5505 		-3.2992 		19.995
v 9.071 		1.071 		0
v 9.934 		0.088 		0
v 11.3036 		-2.3507 		19.995
v 11.2977 		-2.3463 		19.995
v 9.386 		-2.737 		18.5137
v 9.726 		-3.728 		17.1431
v 11.914 		-4.695 		0
v 12 		-6 		0
# 225 vertices

g group_0_15277357

usemtl color_15277357
s 0

f 4 	63 	3
f 5 	63 	4
f 9 	10 	8
f 10 	11 	8
f 11 	12 	8
f 12 	13 	8
f 13 	32 	8
f 14 	15 	16
f 14 	16 	17
f 17 	217 	14
f 190 	189 	199
f 191 	190 	199
f 6 	63 	5
f 32 	33 	8
f 33 	34 	8
f 34 	30 	8
f 30 	21 	8
f 212 	213 	20
f 36 	38 	35
f 7 	8 	42
f 44 	6 	43
f 39 	88 	28
f 12 	25 	27
f 46 	134 	39
f 13 	12 	40
f 189 	188 	199
f 45 	186 	49
f 56 	218 	55
f 54 	31 	10
f 52 	73 	51
f 57 	58 	59
f 17 	114 	115
f 65 	2 	64
f 66 	2 	65
f 67 	2 	66
f 63 	64 	2
f 53 	55 	24
f 20 	28 	90
f 74 	51 	73
f 52 	51 	87
f 59 	79 	80
f 59 	80 	57
f 50 	133 	46
f 80 	79 	200
f 79 	61 	200
f 52 	23 	73
f 90 	91 	20
f 88 	90 	28
f 23 	20 	91
f 91 	92 	23
f 73 	23 	92
f 85 	73 	92
f 58 	109 	59
f 58 	57 	109
f 97 	14 	217
f 72 	81 	96
f 2 	101 	3
f 71 	93 	86
f 81 	102 	99
f 42 	43 	6
f 171 	168 	207
f 192 	207 	168
f 200 	100 	80
f 76 	6 	75
f 72 	96 	93
f 79 	59 	109
f 99 	96 	81
f 79 	109 	61
f 82 	80 	70
f 125 	224 	18
f 81 	84 	102
f 122 	95 	188
f 108 	106 	165
f 60 	68 	107
f 100 	68 	70
f 108 	105 	106
f 109 	57 	80
f 108 	165 	110
f 168 	110 	165
f 69 	101 	17
f 103 	102 	56
f 84 	56 	102
f 100 	70 	80
f 112 	110 	168
f 56 	55 	104
f 56 	104 	103
f 142 	29 	22
f 54 	60 	113
f 26 	144 	22
f 105 	104 	53
f 55 	53 	104
f 101 	114 	17
f 35 	109 	82
f 109 	80 	82
f 117 	31 	113
f 51 	119 	87
f 42 	6 	7
f 119 	198 	87
f 87 	198 	211
f 183 	198 	119
f 122 	96 	118
f 100 	107 	68
f 37 	42 	8
f 21 	37 	8
f 120 	25 	117
f 125 	129 	224
f 225 	224 	129
f 225 	115 	1
f 177 	136 	26
f 107 	113 	60
f 48 	27 	120
f 86 	93 	152
f 93 	122 	152
f 96 	122 	93
f 96 	99 	118
f 38 	109 	35
f 144 	26 	136
f 10 	31 	25
f 123 	106 	105
f 108 	110 	104
f 105 	108 	104
f 110 	112 	103
f 102 	103 	112
f 103 	104 	110
f 112 	116 	102
f 99 	102 	116
f 116 	118 	99
f 27 	48 	40
f 25 	120 	27
f 31 	117 	25
f 54 	113 	31
f 47 	40 	48
f 132 	130 	47
f 123 	105 	67
f 54 	10 	9
f 67 	126 	123
f 60 	54 	9
f 41 	187 	45
f 129 	115 	225
f 7 	68 	60
f 32 	130 	33
f 7 	6 	68
f 177 	138 	136
f 17 	125 	208
f 140 	137 	184
f 5 	36 	82
f 35 	82 	36
f 129 	125 	17
f 140 	131 	137
f 177 	178 	138
f 186 	141 	140
f 137 	131 	50
f 141 	128 	140
f 36 	4 	98
f 34 	33 	124
f 143 	141 	186
f 142 	22 	144
f 98 	3 	69
f 69 	3 	101
f 144 	14 	142
f 14 	144 	136
f 133 	134 	46
f 143 	126 	141
f 88 	39 	134
f 132 	41 	45
f 136 	138 	14
f 114 	101 	2
f 126 	143 	123
f 133 	50 	131
f 106 	123 	143
f 27 	40 	12
f 192 	193 	48
f 47 	48 	193
f 128 	141 	126
f 131 	140 	128
f 135 	139 	124
f 132 	135 	127
f 130 	132 	127
f 40 	47 	130
f 124 	127 	135
f 111 	124 	139
f 176 	111 	139
f 193 	132 	47
f 61 	199 	200
f 145 	146 	151
f 75 	151 	146
f 150 	147 	151
f 145 	151 	147
f 132 	193 	41
f 197 	174 	161
f 150 	6 	44
f 151 	6 	150
f 75 	6 	151
f 205 	113 	107
f 120 	207 	48
f 17 	16 	98
f 206 	117 	205
f 113 	205 	117
f 145 	153 	154
f 206 	207 	117
f 146 	145 	154
f 145 	147 	153
f 147 	149 	153
f 156 	38 	36
f 36 	98 	156
f 16 	156 	98
f 114 	1 	115
f 158 	159 	157
f 85 	157 	159
f 159 	74 	85
f 73 	85 	74
f 115 	129 	17
f 160 	155 	190
f 17 	98 	69
f 152 	155 	86
f 160 	83 	155
f 208 	217 	17
f 100 	200 	202
f 190 	162 	160
f 164 	160 	162
f 111 	21 	30
f 204 	107 	202
f 100 	202 	107
f 51 	74 	163
f 107 	204 	205
f 30 	124 	111
f 74 	167 	163
f 170 	162 	222
f 159 	167 	74
f 170 	164 	162
f 106 	121 	165
f 164 	170 	160
f 127 	33 	130
f 178 	195 	166
f 120 	117 	207
f 171 	112 	168
f 32 	13 	130
f 13 	40 	130
f 192 	48 	207
f 112 	171 	116
f 171 	89 	116
f 170 	83 	160
f 114 	2 	1
f 197 	199 	174
f 174 	199 	61
f 94 	118 	116
f 94 	116 	89
f 175 	173 	21
f 222 	223 	97
f 21 	111 	175
f 118 	94 	122
f 95 	122 	94
f 45 	135 	132
f 86 	155 	83
f 148 	83 	170
f 45 	49 	135
f 139 	135 	49
f 161 	166 	195
f 139 	49 	176
f 194 	176 	49
f 165 	121 	192
f 193 	192 	121
f 67 	105 	53
f 29 	191 	199
f 22 	29 	199
f 26 	22 	199
f 194 	196 	176
f 179 	176 	196
f 180 	179 	198
f 166 	14 	138
f 14 	166 	161
f 109 	15 	61
f 174 	61 	15
f 14 	161 	15
f 161 	174 	15
f 12 	11 	25
f 180 	173 	179
f 11 	10 	25
f 179 	196 	198
f 156 	16 	38
f 16 	15 	38
f 109 	38 	15
f 91 	75 	92
f 67 	66 	126
f 9 	8 	60
f 75 	146 	92
f 126 	65 	128
f 66 	65 	126
f 181 	172 	180
f 8 	7 	60
f 158 	153 	159
f 65 	131 	128
f 159 	153 	149
f 182 	169 	181
f 65 	64 	131
f 211 	212 	23
f 18 	224 	53
f 19 	18 	53
f 133 	131 	63
f 64 	63 	131
f 70 	68 	6
f 51 	163 	119
f 62 	134 	63
f 63 	134 	133
f 176 	179 	175
f 163 	167 	182
f 169 	182 	167
f 173 	180 	172
f 175 	179 	173
f 111 	176 	175
f 70 	6 	82
f 172 	181 	169
f 5 	82 	6
f 147 	150 	149
f 159 	149 	167
f 4 	36 	5
f 183 	119 	163
f 185 	140 	184
f 173 	42 	37
f 167 	149 	44
f 140 	185 	186
f 167 	44 	169
f 43 	169 	44
f 187 	143 	186
f 43 	42 	169
f 172 	169 	42
f 3 	98 	4
f 187 	121 	143
f 106 	143 	121
f 42 	173 	172
f 173 	37 	21
f 185 	49 	186
f 184 	49 	185
f 216 	194 	184
f 41 	193 	187
f 186 	45 	187
f 122 	188 	152
f 180 	198 	181
f 34 	124 	30
f 152 	188 	189
f 152 	189 	155
f 33 	127 	124
f 203 	183 	182
f 168 	165 	192
f 44 	149 	150
f 182 	183 	163
f 88 	134 	78
f 78 	90 	88
f 205 	204 	89
f 89 	171 	205
f 200 	199 	188
f 206 	205 	171
f 207 	206 	171
f 85 	92 	146
f 121 	187 	193
f 161 	195 	197
f 52 	87 	23
f 20 	23 	212
f 181 	198 	201
f 28 	20 	213
f 181 	201 	182
f 203 	182 	201
f 210 	208 	209
f 213 	214 	28
f 39 	28 	214
f 39 	214 	46
f 215 	46 	214
f 216 	50 	46
f 216 	46 	215
f 137 	50 	216
f 184 	137 	216
f 201 	183 	203
f 198 	183 	201
f 196 	216 	198
f 194 	216 	196
f 49 	184 	194
f 134 	62 	78
f 138 	178 	166
f 90 	78 	77
f 77 	76 	91
f 77 	91 	90
f 94 	89 	204
f 95 	94 	204
f 204 	202 	95
f 188 	95 	202
f 202 	200 	188
f 177 	26 	199
f 178 	177 	199
f 197 	178 	199
f 178 	197 	195
f 76 	75 	91
f 19 	209 	208
f 211 	23 	87
f 189 	190 	155
f 221 	209 	170
f 125 	18 	208
f 18 	19 	208
f 209 	19 	148
f 24 	148 	19
f 219 	83 	24
f 148 	24 	83
f 212 	198 	213
f 213 	198 	214
f 211 	198 	212
f 214 	198 	215
f 215 	198 	216
f 191 	222 	190
f 81 	72 	84
f 56 	84 	72
f 56 	72 	71
f 56 	71 	218
f 219 	55 	218
f 219 	24 	55
f 53 	1 	67
f 24 	19 	53
f 62 	63 	6
f 208 	210 	217
f 220 	217 	210
f 210 	209 	221
f 2 	3 	63
f 76 	77 	6
f 78 	62 	6
f 78 	6 	77
f 148 	170 	209
f 223 	29 	142
f 210 	221 	220
f 218 	86 	219
f 83 	219 	86
f 86 	218 	71
f 162 	190 	222
f 29 	223 	191
f 222 	191 	223
f 97 	223 	14
f 93 	71 	72
f 142 	14 	223
f 170 	222 	97
f 217 	220 	97
f 170 	97 	220
f 170 	220 	221
f 154 	157 	85
f 85 	146 	154
f 154 	153 	158
f 154 	158 	157
f 1 	53 	225
f 2 	67 	1
f 224 	225 	53
# 446 faces

 #end of obj_0

